<mxfile host="Electron" agent="Mozilla/5.0 (Windows NT 10.0; Win64; x64) AppleWebKit/537.36 (KHTML, like Gecko) draw.io/24.7.5 Chrome/126.0.6478.183 Electron/31.3.0 Safari/537.36" version="24.7.5" pages="3">
  <diagram id="7WJ1k1EOUhtB8v17Vkp1" name="Monolitica">
    <mxGraphModel dx="1518" dy="731" grid="1" gridSize="10" guides="1" tooltips="1" connect="1" arrows="1" fold="1" page="1" pageScale="1" pageWidth="1169" pageHeight="827" math="0" shadow="0">
      <root>
        <mxCell id="0" />
        <mxCell id="1" parent="0" />
        <mxCell id="yDUCki5_AiklFK0si5wd-4" value="" style="rounded=1;whiteSpace=wrap;html=1;fontSize=18;arcSize=9;dashed=1;fillColor=#EAF1FC;gradientColor=#BDD2F2;strokeColor=#6c8ebf;" parent="1" vertex="1">
          <mxGeometry x="345" y="284" width="480" height="260" as="geometry" />
        </mxCell>
        <mxCell id="yDUCki5_AiklFK0si5wd-22" value="" style="rounded=1;whiteSpace=wrap;html=1;fontSize=18;arcSize=9;dashed=1;fillColor=#FFF8E3;gradientColor=#FFF1C2;strokeColor=#d6b656;" parent="1" vertex="1">
          <mxGeometry x="345" y="576.5" width="480" height="127.5" as="geometry" />
        </mxCell>
        <mxCell id="yDUCki5_AiklFK0si5wd-1" value="" style="rounded=1;whiteSpace=wrap;html=1;fontSize=18;arcSize=9;dashed=1;fillColor=#f5f5f5;gradientColor=#D9D9D9;strokeColor=#666666;gradientDirection=north;" parent="1" vertex="1">
          <mxGeometry x="345" y="90" width="480" height="158" as="geometry" />
        </mxCell>
        <mxCell id="yDUCki5_AiklFK0si5wd-2" value="API" style="aspect=fixed;sketch=0;html=1;dashed=0;whitespace=wrap;verticalLabelPosition=bottom;verticalAlign=top;fillColor=#A8A8A8;strokeColor=#ffffff;points=[[0.005,0.63,0],[0.1,0.2,0],[0.9,0.2,0],[0.5,0,0],[0.995,0.63,0],[0.72,0.99,0],[0.5,1,0],[0.28,0.99,0]];shape=mxgraph.kubernetes.icon2;prIcon=api;fontSize=18;" parent="1" vertex="1">
          <mxGeometry x="385" y="122.68" width="80" height="76.8" as="geometry" />
        </mxCell>
        <mxCell id="yDUCki5_AiklFK0si5wd-20" style="edgeStyle=orthogonalEdgeStyle;rounded=0;orthogonalLoop=1;jettySize=auto;html=1;" parent="1" source="yDUCki5_AiklFK0si5wd-3" target="yDUCki5_AiklFK0si5wd-5" edge="1">
          <mxGeometry relative="1" as="geometry" />
        </mxCell>
        <mxCell id="yDUCki5_AiklFK0si5wd-3" value="App Web" style="sketch=0;outlineConnect=0;fontColor=#232F3E;gradientColor=none;fillColor=#A8A8A8;strokeColor=none;dashed=0;verticalLabelPosition=bottom;verticalAlign=top;align=center;html=1;fontSize=18;fontStyle=0;aspect=fixed;pointerEvents=1;shape=mxgraph.aws4.state_manager;" parent="1" vertex="1">
          <mxGeometry x="714.5" y="127" width="78" height="78" as="geometry" />
        </mxCell>
        <mxCell id="yDUCki5_AiklFK0si5wd-5" value="State&#xa;manager" style="sketch=0;outlineConnect=0;fontColor=#000033;gradientColor=none;strokeColor=#006600;fillColor=#ffffff;dashed=0;verticalLabelPosition=bottom;verticalAlign=top;align=center;html=1;fontSize=18;fontStyle=0;aspect=fixed;shape=mxgraph.aws4.resourceIcon;resIcon=mxgraph.aws4.state_manager;" parent="1" vertex="1">
          <mxGeometry x="723.5" y="304" width="60" height="60" as="geometry" />
        </mxCell>
        <mxCell id="yDUCki5_AiklFK0si5wd-6" value="APIs" style="aspect=fixed;sketch=0;html=1;dashed=0;whitespace=wrap;verticalLabelPosition=bottom;verticalAlign=top;fillColor=#2875E2;strokeColor=#ffffff;points=[[0.005,0.63,0],[0.1,0.2,0],[0.9,0.2,0],[0.5,0,0],[0.995,0.63,0],[0.72,0.99,0],[0.5,1,0],[0.28,0.99,0]];shape=mxgraph.kubernetes.icon2;prIcon=api;fontSize=18;" parent="1" vertex="1">
          <mxGeometry x="385" y="304" width="80" height="76.8" as="geometry" />
        </mxCell>
        <mxCell id="yDUCki5_AiklFK0si5wd-7" value="" style="rounded=0;whiteSpace=wrap;html=1;fontSize=18;fillColor=#dae8fc;gradientColor=#A1C0F7;strokeColor=#6c8ebf;gradientDirection=north;" parent="1" vertex="1">
          <mxGeometry x="365" y="434" width="440" height="100" as="geometry" />
        </mxCell>
        <mxCell id="yDUCki5_AiklFK0si5wd-8" value="Identity" style="rounded=0;whiteSpace=wrap;html=1;fontSize=18;" parent="1" vertex="1">
          <mxGeometry x="385" y="454" width="90" height="20" as="geometry" />
        </mxCell>
        <mxCell id="yDUCki5_AiklFK0si5wd-9" value="Orders" style="rounded=0;whiteSpace=wrap;html=1;fontSize=18;" parent="1" vertex="1">
          <mxGeometry x="495" y="454" width="90" height="20" as="geometry" />
        </mxCell>
        <mxCell id="yDUCki5_AiklFK0si5wd-10" value="Sales" style="rounded=0;whiteSpace=wrap;html=1;fontSize=18;" parent="1" vertex="1">
          <mxGeometry x="595" y="454" width="90" height="20" as="geometry" />
        </mxCell>
        <mxCell id="yDUCki5_AiklFK0si5wd-11" value="Marqueting" style="rounded=0;whiteSpace=wrap;html=1;fontSize=18;" parent="1" vertex="1">
          <mxGeometry x="703.5" y="454" width="90" height="20" as="geometry" />
        </mxCell>
        <mxCell id="yDUCki5_AiklFK0si5wd-12" value="Product" style="rounded=0;whiteSpace=wrap;html=1;fontSize=18;" parent="1" vertex="1">
          <mxGeometry x="495" y="494" width="90" height="20" as="geometry" />
        </mxCell>
        <mxCell id="yDUCki5_AiklFK0si5wd-13" value="Catalog" style="rounded=0;whiteSpace=wrap;html=1;fontSize=18;" parent="1" vertex="1">
          <mxGeometry x="385" y="494" width="90" height="20" as="geometry" />
        </mxCell>
        <mxCell id="yDUCki5_AiklFK0si5wd-14" value="Payment" style="rounded=0;whiteSpace=wrap;html=1;fontSize=18;" parent="1" vertex="1">
          <mxGeometry x="595" y="494" width="90" height="20" as="geometry" />
        </mxCell>
        <mxCell id="yDUCki5_AiklFK0si5wd-15" value="Invoices" style="rounded=0;whiteSpace=wrap;html=1;fontSize=18;" parent="1" vertex="1">
          <mxGeometry x="705" y="494" width="90" height="20" as="geometry" />
        </mxCell>
        <mxCell id="yDUCki5_AiklFK0si5wd-16" style="edgeStyle=orthogonalEdgeStyle;rounded=0;orthogonalLoop=1;jettySize=auto;html=1;entryX=0.884;entryY=0.03;entryDx=0;entryDy=0;entryPerimeter=0;fontSize=18;" parent="1" source="yDUCki5_AiklFK0si5wd-5" target="yDUCki5_AiklFK0si5wd-7" edge="1">
          <mxGeometry relative="1" as="geometry" />
        </mxCell>
        <mxCell id="yDUCki5_AiklFK0si5wd-17" style="edgeStyle=orthogonalEdgeStyle;rounded=0;orthogonalLoop=1;jettySize=auto;html=1;entryX=0.136;entryY=0.04;entryDx=0;entryDy=0;entryPerimeter=0;fontSize=18;" parent="1" source="yDUCki5_AiklFK0si5wd-6" target="yDUCki5_AiklFK0si5wd-7" edge="1">
          <mxGeometry relative="1" as="geometry" />
        </mxCell>
        <mxCell id="yDUCki5_AiklFK0si5wd-18" value="Database" style="shape=cylinder3;whiteSpace=wrap;html=1;boundedLbl=1;backgroundOutline=1;size=15;fillColor=#ffe6cc;strokeColor=#d79b00;fontSize=18;" parent="1" vertex="1">
          <mxGeometry x="533" y="610" width="105" height="80" as="geometry" />
        </mxCell>
        <mxCell id="yDUCki5_AiklFK0si5wd-19" style="edgeStyle=orthogonalEdgeStyle;rounded=0;orthogonalLoop=1;jettySize=auto;html=1;entryX=0.5;entryY=0;entryDx=0;entryDy=0;entryPerimeter=0;fontSize=18;" parent="1" source="yDUCki5_AiklFK0si5wd-4" target="yDUCki5_AiklFK0si5wd-18" edge="1">
          <mxGeometry relative="1" as="geometry" />
        </mxCell>
        <mxCell id="yDUCki5_AiklFK0si5wd-21" style="edgeStyle=orthogonalEdgeStyle;rounded=0;orthogonalLoop=1;jettySize=auto;html=1;entryX=0.5;entryY=0;entryDx=0;entryDy=0;entryPerimeter=0;" parent="1" source="yDUCki5_AiklFK0si5wd-2" target="yDUCki5_AiklFK0si5wd-6" edge="1">
          <mxGeometry relative="1" as="geometry" />
        </mxCell>
        <mxCell id="yDUCki5_AiklFK0si5wd-23" value="Aplicaciones&amp;nbsp;&lt;div&gt;Cliente&lt;/div&gt;" style="text;html=1;align=center;verticalAlign=middle;whiteSpace=wrap;rounded=0;fontSize=20;fontStyle=3;rotation=-90;" parent="1" vertex="1">
          <mxGeometry x="210" y="155.08" width="200" height="30" as="geometry" />
        </mxCell>
        <mxCell id="yDUCki5_AiklFK0si5wd-24" value="Servidor&amp;nbsp;&lt;div&gt;Base de Datos&lt;/div&gt;" style="text;html=1;align=center;verticalAlign=middle;whiteSpace=wrap;rounded=0;fontSize=20;fontStyle=3;rotation=-90;" parent="1" vertex="1">
          <mxGeometry x="217" y="625.25" width="193" height="30" as="geometry" />
        </mxCell>
        <mxCell id="yDUCki5_AiklFK0si5wd-25" value="Servidor de Procesos Monolitico" style="text;html=1;align=center;verticalAlign=middle;whiteSpace=wrap;rounded=0;fontSize=20;fontStyle=3;rotation=-90;" parent="1" vertex="1">
          <mxGeometry x="210" y="399" width="200" height="30" as="geometry" />
        </mxCell>
        <mxCell id="yDUCki5_AiklFK0si5wd-27" value="Monolitica" style="text;html=1;align=center;verticalAlign=middle;whiteSpace=wrap;rounded=0;fontSize=24;fontStyle=1" parent="1" vertex="1">
          <mxGeometry x="480" y="10" width="210" height="30" as="geometry" />
        </mxCell>
      </root>
    </mxGraphModel>
  </diagram>
  <diagram id="kv1NkubVBqemww5eLgUQ" name="Microservicios">
    <mxGraphModel dx="1290" dy="621" grid="1" gridSize="10" guides="1" tooltips="1" connect="1" arrows="1" fold="1" page="1" pageScale="1" pageWidth="1169" pageHeight="827" math="0" shadow="0">
      <root>
        <mxCell id="0" />
        <mxCell id="1" parent="0" />
        <mxCell id="uDVpMdKTiAAkaG3sgZy--1" value="" style="rounded=1;whiteSpace=wrap;html=1;fontSize=18;arcSize=9;dashed=1;fillColor=#fff2cc;strokeColor=#d6b656;" parent="1" vertex="1">
          <mxGeometry x="186" y="284" width="870" height="260" as="geometry" />
        </mxCell>
        <mxCell id="uDVpMdKTiAAkaG3sgZy--3" value="" style="rounded=1;whiteSpace=wrap;html=1;fontSize=18;arcSize=9;dashed=1;fillColor=#f5f5f5;gradientColor=#D9D9D9;strokeColor=#666666;gradientDirection=north;" parent="1" vertex="1">
          <mxGeometry x="345" y="90" width="480" height="158" as="geometry" />
        </mxCell>
        <mxCell id="uDVpMdKTiAAkaG3sgZy--4" value="API" style="aspect=fixed;sketch=0;html=1;dashed=0;whitespace=wrap;verticalLabelPosition=bottom;verticalAlign=top;fillColor=#A8A8A8;strokeColor=#ffffff;points=[[0.005,0.63,0],[0.1,0.2,0],[0.9,0.2,0],[0.5,0,0],[0.995,0.63,0],[0.72,0.99,0],[0.5,1,0],[0.28,0.99,0]];shape=mxgraph.kubernetes.icon2;prIcon=api;fontSize=18;" parent="1" vertex="1">
          <mxGeometry x="385" y="122.68" width="80" height="76.8" as="geometry" />
        </mxCell>
        <mxCell id="uDVpMdKTiAAkaG3sgZy--5" style="edgeStyle=orthogonalEdgeStyle;rounded=0;orthogonalLoop=1;jettySize=auto;html=1;" parent="1" source="uDVpMdKTiAAkaG3sgZy--6" edge="1">
          <mxGeometry relative="1" as="geometry">
            <mxPoint x="753.5" y="304" as="targetPoint" />
          </mxGeometry>
        </mxCell>
        <mxCell id="uDVpMdKTiAAkaG3sgZy--6" value="App Web" style="sketch=0;outlineConnect=0;fontColor=#232F3E;gradientColor=none;fillColor=#A8A8A8;strokeColor=none;dashed=0;verticalLabelPosition=bottom;verticalAlign=top;align=center;html=1;fontSize=18;fontStyle=0;aspect=fixed;pointerEvents=1;shape=mxgraph.aws4.state_manager;" parent="1" vertex="1">
          <mxGeometry x="714.5" y="127" width="78" height="78" as="geometry" />
        </mxCell>
        <mxCell id="uDVpMdKTiAAkaG3sgZy--9" value="API GATEWAY" style="rounded=0;whiteSpace=wrap;html=1;fontSize=18;fillColor=#dae8fc;strokeColor=#6c8ebf;gradientDirection=north;" parent="1" vertex="1">
          <mxGeometry x="206" y="310" width="830" height="36" as="geometry" />
        </mxCell>
        <mxCell id="uDVpMdKTiAAkaG3sgZy--22" style="edgeStyle=orthogonalEdgeStyle;rounded=0;orthogonalLoop=1;jettySize=auto;html=1;entryX=0.5;entryY=0;entryDx=0;entryDy=0;entryPerimeter=0;" parent="1" source="uDVpMdKTiAAkaG3sgZy--4" edge="1">
          <mxGeometry relative="1" as="geometry">
            <mxPoint x="425" y="304" as="targetPoint" />
          </mxGeometry>
        </mxCell>
        <mxCell id="uDVpMdKTiAAkaG3sgZy--23" value="Aplicaciones&amp;nbsp;&lt;div&gt;Cliente&lt;/div&gt;" style="text;html=1;align=center;verticalAlign=middle;whiteSpace=wrap;rounded=0;fontSize=20;fontStyle=3;rotation=0;" parent="1" vertex="1">
          <mxGeometry x="485" y="110.00000000000001" width="200" height="30" as="geometry" />
        </mxCell>
        <mxCell id="uDVpMdKTiAAkaG3sgZy--26" value="Microservicios" style="text;html=1;align=center;verticalAlign=middle;whiteSpace=wrap;rounded=0;fontSize=24;fontStyle=1" parent="1" vertex="1">
          <mxGeometry x="477" y="30" width="210" height="30" as="geometry" />
        </mxCell>
        <mxCell id="uDVpMdKTiAAkaG3sgZy--27" value="Servicio Identity" style="aspect=fixed;sketch=0;html=1;dashed=0;whitespace=wrap;verticalLabelPosition=bottom;verticalAlign=top;fillColor=#2875E2;strokeColor=#ffffff;points=[[0.005,0.63,0],[0.1,0.2,0],[0.9,0.2,0],[0.5,0,0],[0.995,0.63,0],[0.72,0.99,0],[0.5,1,0],[0.28,0.99,0]];shape=mxgraph.kubernetes.icon2;prIcon=api" parent="1" vertex="1">
          <mxGeometry x="206" y="360" width="50" height="48" as="geometry" />
        </mxCell>
        <mxCell id="uDVpMdKTiAAkaG3sgZy--28" value="Servicio Orders" style="aspect=fixed;sketch=0;html=1;dashed=0;whitespace=wrap;verticalLabelPosition=bottom;verticalAlign=top;fillColor=#2875E2;strokeColor=#ffffff;points=[[0.005,0.63,0],[0.1,0.2,0],[0.9,0.2,0],[0.5,0,0],[0.995,0.63,0],[0.72,0.99,0],[0.5,1,0],[0.28,0.99,0]];shape=mxgraph.kubernetes.icon2;prIcon=api" parent="1" vertex="1">
          <mxGeometry x="314" y="360" width="50" height="48" as="geometry" />
        </mxCell>
        <mxCell id="uDVpMdKTiAAkaG3sgZy--29" value="Servicio Marketing" style="aspect=fixed;sketch=0;html=1;dashed=0;whitespace=wrap;verticalLabelPosition=bottom;verticalAlign=top;fillColor=#2875E2;strokeColor=#ffffff;points=[[0.005,0.63,0],[0.1,0.2,0],[0.9,0.2,0],[0.5,0,0],[0.995,0.63,0],[0.72,0.99,0],[0.5,1,0],[0.28,0.99,0]];shape=mxgraph.kubernetes.icon2;prIcon=api" parent="1" vertex="1">
          <mxGeometry x="529.5" y="360" width="50" height="48" as="geometry" />
        </mxCell>
        <mxCell id="uDVpMdKTiAAkaG3sgZy--30" value="Servicio Sales" style="aspect=fixed;sketch=0;html=1;dashed=0;whitespace=wrap;verticalLabelPosition=bottom;verticalAlign=top;fillColor=#2875E2;strokeColor=#ffffff;points=[[0.005,0.63,0],[0.1,0.2,0],[0.9,0.2,0],[0.5,0,0],[0.995,0.63,0],[0.72,0.99,0],[0.5,1,0],[0.28,0.99,0]];shape=mxgraph.kubernetes.icon2;prIcon=api" parent="1" vertex="1">
          <mxGeometry x="422" y="360" width="50" height="48" as="geometry" />
        </mxCell>
        <mxCell id="uDVpMdKTiAAkaG3sgZy--31" value="Servicio Catalog" style="aspect=fixed;sketch=0;html=1;dashed=0;whitespace=wrap;verticalLabelPosition=bottom;verticalAlign=top;fillColor=#2875E2;strokeColor=#ffffff;points=[[0.005,0.63,0],[0.1,0.2,0],[0.9,0.2,0],[0.5,0,0],[0.995,0.63,0],[0.72,0.99,0],[0.5,1,0],[0.28,0.99,0]];shape=mxgraph.kubernetes.icon2;prIcon=api" parent="1" vertex="1">
          <mxGeometry x="636" y="360" width="50" height="48" as="geometry" />
        </mxCell>
        <mxCell id="uDVpMdKTiAAkaG3sgZy--32" value="Servicio Product" style="aspect=fixed;sketch=0;html=1;dashed=0;whitespace=wrap;verticalLabelPosition=bottom;verticalAlign=top;fillColor=#2875E2;strokeColor=#ffffff;points=[[0.005,0.63,0],[0.1,0.2,0],[0.9,0.2,0],[0.5,0,0],[0.995,0.63,0],[0.72,0.99,0],[0.5,1,0],[0.28,0.99,0]];shape=mxgraph.kubernetes.icon2;prIcon=api" parent="1" vertex="1">
          <mxGeometry x="744" y="360" width="50" height="48" as="geometry" />
        </mxCell>
        <mxCell id="uDVpMdKTiAAkaG3sgZy--33" value="Servicio Invoices" style="aspect=fixed;sketch=0;html=1;dashed=0;whitespace=wrap;verticalLabelPosition=bottom;verticalAlign=top;fillColor=#2875E2;strokeColor=#ffffff;points=[[0.005,0.63,0],[0.1,0.2,0],[0.9,0.2,0],[0.5,0,0],[0.995,0.63,0],[0.72,0.99,0],[0.5,1,0],[0.28,0.99,0]];shape=mxgraph.kubernetes.icon2;prIcon=api" parent="1" vertex="1">
          <mxGeometry x="959.5" y="360" width="50" height="48" as="geometry" />
        </mxCell>
        <mxCell id="uDVpMdKTiAAkaG3sgZy--34" value="Servicio Payment" style="aspect=fixed;sketch=0;html=1;dashed=0;whitespace=wrap;verticalLabelPosition=bottom;verticalAlign=top;fillColor=#2875E2;strokeColor=#ffffff;points=[[0.005,0.63,0],[0.1,0.2,0],[0.9,0.2,0],[0.5,0,0],[0.995,0.63,0],[0.72,0.99,0],[0.5,1,0],[0.28,0.99,0]];shape=mxgraph.kubernetes.icon2;prIcon=api" parent="1" vertex="1">
          <mxGeometry x="852" y="360" width="50" height="48" as="geometry" />
        </mxCell>
        <mxCell id="uDVpMdKTiAAkaG3sgZy--35" value="" style="shape=cylinder3;whiteSpace=wrap;html=1;boundedLbl=1;backgroundOutline=1;size=5.666666666666686;" parent="1" vertex="1">
          <mxGeometry x="217.5" y="460" width="28.5" height="40" as="geometry" />
        </mxCell>
        <mxCell id="uDVpMdKTiAAkaG3sgZy--36" style="edgeStyle=orthogonalEdgeStyle;rounded=0;orthogonalLoop=1;jettySize=auto;html=1;entryX=0.5;entryY=0;entryDx=0;entryDy=0;entryPerimeter=0;" parent="1" source="uDVpMdKTiAAkaG3sgZy--27" target="uDVpMdKTiAAkaG3sgZy--35" edge="1">
          <mxGeometry relative="1" as="geometry" />
        </mxCell>
        <mxCell id="uDVpMdKTiAAkaG3sgZy--37" value="" style="shape=cylinder3;whiteSpace=wrap;html=1;boundedLbl=1;backgroundOutline=1;size=5.666666666666686;" parent="1" vertex="1">
          <mxGeometry x="324.75" y="460" width="28.5" height="40" as="geometry" />
        </mxCell>
        <mxCell id="uDVpMdKTiAAkaG3sgZy--39" style="edgeStyle=orthogonalEdgeStyle;rounded=0;orthogonalLoop=1;jettySize=auto;html=1;entryX=0.5;entryY=0;entryDx=0;entryDy=0;entryPerimeter=0;" parent="1" source="uDVpMdKTiAAkaG3sgZy--28" target="uDVpMdKTiAAkaG3sgZy--37" edge="1">
          <mxGeometry relative="1" as="geometry" />
        </mxCell>
        <mxCell id="uDVpMdKTiAAkaG3sgZy--40" value="" style="shape=cylinder3;whiteSpace=wrap;html=1;boundedLbl=1;backgroundOutline=1;size=5.666666666666686;" parent="1" vertex="1">
          <mxGeometry x="432.75" y="460" width="28.5" height="40" as="geometry" />
        </mxCell>
        <mxCell id="uDVpMdKTiAAkaG3sgZy--41" style="edgeStyle=orthogonalEdgeStyle;rounded=0;orthogonalLoop=1;jettySize=auto;html=1;entryX=0.5;entryY=0;entryDx=0;entryDy=0;entryPerimeter=0;" parent="1" source="uDVpMdKTiAAkaG3sgZy--30" target="uDVpMdKTiAAkaG3sgZy--40" edge="1">
          <mxGeometry relative="1" as="geometry" />
        </mxCell>
        <mxCell id="uDVpMdKTiAAkaG3sgZy--42" value="" style="shape=cylinder3;whiteSpace=wrap;html=1;boundedLbl=1;backgroundOutline=1;size=5.666666666666686;" parent="1" vertex="1">
          <mxGeometry x="540.25" y="460" width="28.5" height="40" as="geometry" />
        </mxCell>
        <mxCell id="uDVpMdKTiAAkaG3sgZy--43" style="edgeStyle=orthogonalEdgeStyle;rounded=0;orthogonalLoop=1;jettySize=auto;html=1;entryX=0.5;entryY=0;entryDx=0;entryDy=0;entryPerimeter=0;" parent="1" source="uDVpMdKTiAAkaG3sgZy--29" target="uDVpMdKTiAAkaG3sgZy--42" edge="1">
          <mxGeometry relative="1" as="geometry" />
        </mxCell>
        <mxCell id="uDVpMdKTiAAkaG3sgZy--44" value="" style="shape=cylinder3;whiteSpace=wrap;html=1;boundedLbl=1;backgroundOutline=1;size=5.666666666666686;" parent="1" vertex="1">
          <mxGeometry x="646.75" y="460" width="28.5" height="40" as="geometry" />
        </mxCell>
        <mxCell id="uDVpMdKTiAAkaG3sgZy--45" value="" style="shape=cylinder3;whiteSpace=wrap;html=1;boundedLbl=1;backgroundOutline=1;size=5.666666666666686;" parent="1" vertex="1">
          <mxGeometry x="754.75" y="460" width="28.5" height="40" as="geometry" />
        </mxCell>
        <mxCell id="uDVpMdKTiAAkaG3sgZy--46" value="" style="shape=cylinder3;whiteSpace=wrap;html=1;boundedLbl=1;backgroundOutline=1;size=5.666666666666686;" parent="1" vertex="1">
          <mxGeometry x="862.75" y="460" width="28.5" height="40" as="geometry" />
        </mxCell>
        <mxCell id="uDVpMdKTiAAkaG3sgZy--47" value="" style="shape=cylinder3;whiteSpace=wrap;html=1;boundedLbl=1;backgroundOutline=1;size=5.666666666666686;" parent="1" vertex="1">
          <mxGeometry x="970.25" y="460" width="28.5" height="40" as="geometry" />
        </mxCell>
        <mxCell id="uDVpMdKTiAAkaG3sgZy--48" value="Postgresql" style="text;html=1;align=center;verticalAlign=middle;whiteSpace=wrap;rounded=0;" parent="1" vertex="1">
          <mxGeometry x="309" y="500" width="60" height="30" as="geometry" />
        </mxCell>
        <mxCell id="uDVpMdKTiAAkaG3sgZy--49" value="Mysql" style="text;html=1;align=center;verticalAlign=middle;whiteSpace=wrap;rounded=0;" parent="1" vertex="1">
          <mxGeometry x="417" y="500" width="60" height="30" as="geometry" />
        </mxCell>
        <mxCell id="uDVpMdKTiAAkaG3sgZy--50" value="mongoDB" style="text;html=1;align=center;verticalAlign=middle;whiteSpace=wrap;rounded=0;" parent="1" vertex="1">
          <mxGeometry x="525" y="500" width="60" height="30" as="geometry" />
        </mxCell>
        <mxCell id="uDVpMdKTiAAkaG3sgZy--51" value="Redis Cache" style="text;html=1;align=center;verticalAlign=middle;whiteSpace=wrap;rounded=0;" parent="1" vertex="1">
          <mxGeometry x="631" y="500" width="60" height="30" as="geometry" />
        </mxCell>
        <mxCell id="uDVpMdKTiAAkaG3sgZy--52" value="RDBMS" style="text;html=1;align=center;verticalAlign=middle;whiteSpace=wrap;rounded=0;fontStyle=2" parent="1" vertex="1">
          <mxGeometry x="739" y="500" width="60" height="30" as="geometry" />
        </mxCell>
        <mxCell id="uDVpMdKTiAAkaG3sgZy--53" value="mongoDB" style="text;html=1;align=center;verticalAlign=middle;whiteSpace=wrap;rounded=0;fontStyle=2" parent="1" vertex="1">
          <mxGeometry x="847" y="500" width="60" height="30" as="geometry" />
        </mxCell>
        <mxCell id="uDVpMdKTiAAkaG3sgZy--54" value="mongoDB" style="text;html=1;align=center;verticalAlign=middle;whiteSpace=wrap;rounded=0;fontStyle=2" parent="1" vertex="1">
          <mxGeometry x="954.5" y="500" width="60" height="30" as="geometry" />
        </mxCell>
        <mxCell id="uDVpMdKTiAAkaG3sgZy--55" style="edgeStyle=orthogonalEdgeStyle;rounded=0;orthogonalLoop=1;jettySize=auto;html=1;entryX=0.5;entryY=0;entryDx=0;entryDy=0;entryPerimeter=0;" parent="1" source="uDVpMdKTiAAkaG3sgZy--31" target="uDVpMdKTiAAkaG3sgZy--44" edge="1">
          <mxGeometry relative="1" as="geometry" />
        </mxCell>
        <mxCell id="uDVpMdKTiAAkaG3sgZy--56" style="edgeStyle=orthogonalEdgeStyle;rounded=0;orthogonalLoop=1;jettySize=auto;html=1;entryX=0.5;entryY=0;entryDx=0;entryDy=0;entryPerimeter=0;" parent="1" source="uDVpMdKTiAAkaG3sgZy--32" target="uDVpMdKTiAAkaG3sgZy--45" edge="1">
          <mxGeometry relative="1" as="geometry" />
        </mxCell>
        <mxCell id="uDVpMdKTiAAkaG3sgZy--57" style="edgeStyle=orthogonalEdgeStyle;rounded=0;orthogonalLoop=1;jettySize=auto;html=1;entryX=0.5;entryY=0;entryDx=0;entryDy=0;entryPerimeter=0;" parent="1" source="uDVpMdKTiAAkaG3sgZy--34" target="uDVpMdKTiAAkaG3sgZy--46" edge="1">
          <mxGeometry relative="1" as="geometry" />
        </mxCell>
        <mxCell id="uDVpMdKTiAAkaG3sgZy--58" style="edgeStyle=orthogonalEdgeStyle;rounded=0;orthogonalLoop=1;jettySize=auto;html=1;entryX=0.5;entryY=0;entryDx=0;entryDy=0;entryPerimeter=0;" parent="1" source="uDVpMdKTiAAkaG3sgZy--33" target="uDVpMdKTiAAkaG3sgZy--47" edge="1">
          <mxGeometry relative="1" as="geometry" />
        </mxCell>
        <mxCell id="uDVpMdKTiAAkaG3sgZy--59" value="" style="shape=cylinder3;whiteSpace=wrap;html=1;boundedLbl=1;backgroundOutline=1;size=15;rotation=-90;fillColor=#d5e8d4;strokeColor=#82b366;" parent="1" vertex="1">
          <mxGeometry x="594.25" y="213.75" width="60" height="852.5" as="geometry" />
        </mxCell>
        <mxCell id="uDVpMdKTiAAkaG3sgZy--61" value="Broker" style="text;html=1;align=center;verticalAlign=middle;whiteSpace=wrap;rounded=0;fontSize=20;" parent="1" vertex="1">
          <mxGeometry x="465" y="625" width="280" height="30" as="geometry" />
        </mxCell>
        <mxCell id="uDVpMdKTiAAkaG3sgZy--62" style="edgeStyle=orthogonalEdgeStyle;rounded=0;orthogonalLoop=1;jettySize=auto;html=1;entryX=1.02;entryY=0.092;entryDx=0;entryDy=0;entryPerimeter=0;exitX=0.995;exitY=0.63;exitDx=0;exitDy=0;exitPerimeter=0;" parent="1" source="uDVpMdKTiAAkaG3sgZy--27" target="uDVpMdKTiAAkaG3sgZy--59" edge="1">
          <mxGeometry relative="1" as="geometry" />
        </mxCell>
        <mxCell id="uDVpMdKTiAAkaG3sgZy--63" style="edgeStyle=orthogonalEdgeStyle;rounded=0;orthogonalLoop=1;jettySize=auto;html=1;exitX=0.995;exitY=0.63;exitDx=0;exitDy=0;exitPerimeter=0;entryX=1.012;entryY=0.221;entryDx=0;entryDy=0;entryPerimeter=0;" parent="1" source="uDVpMdKTiAAkaG3sgZy--28" target="uDVpMdKTiAAkaG3sgZy--59" edge="1">
          <mxGeometry relative="1" as="geometry" />
        </mxCell>
        <mxCell id="uDVpMdKTiAAkaG3sgZy--64" style="edgeStyle=orthogonalEdgeStyle;rounded=0;orthogonalLoop=1;jettySize=auto;html=1;exitX=0.995;exitY=0.63;exitDx=0;exitDy=0;exitPerimeter=0;entryX=1.02;entryY=0.347;entryDx=0;entryDy=0;entryPerimeter=0;" parent="1" source="uDVpMdKTiAAkaG3sgZy--30" target="uDVpMdKTiAAkaG3sgZy--59" edge="1">
          <mxGeometry relative="1" as="geometry" />
        </mxCell>
        <mxCell id="uDVpMdKTiAAkaG3sgZy--65" style="edgeStyle=orthogonalEdgeStyle;rounded=0;orthogonalLoop=1;jettySize=auto;html=1;exitX=0.995;exitY=0.63;exitDx=0;exitDy=0;exitPerimeter=0;entryX=1.012;entryY=0.476;entryDx=0;entryDy=0;entryPerimeter=0;" parent="1" source="uDVpMdKTiAAkaG3sgZy--29" target="uDVpMdKTiAAkaG3sgZy--59" edge="1">
          <mxGeometry relative="1" as="geometry" />
        </mxCell>
        <mxCell id="uDVpMdKTiAAkaG3sgZy--66" style="edgeStyle=orthogonalEdgeStyle;rounded=0;orthogonalLoop=1;jettySize=auto;html=1;exitX=0.995;exitY=0.63;exitDx=0;exitDy=0;exitPerimeter=0;entryX=1.028;entryY=0.595;entryDx=0;entryDy=0;entryPerimeter=0;" parent="1" source="uDVpMdKTiAAkaG3sgZy--31" target="uDVpMdKTiAAkaG3sgZy--59" edge="1">
          <mxGeometry relative="1" as="geometry" />
        </mxCell>
        <mxCell id="uDVpMdKTiAAkaG3sgZy--67" style="edgeStyle=orthogonalEdgeStyle;rounded=0;orthogonalLoop=1;jettySize=auto;html=1;exitX=0.995;exitY=0.63;exitDx=0;exitDy=0;exitPerimeter=0;entryX=1.017;entryY=0.723;entryDx=0;entryDy=0;entryPerimeter=0;" parent="1" source="uDVpMdKTiAAkaG3sgZy--32" target="uDVpMdKTiAAkaG3sgZy--59" edge="1">
          <mxGeometry relative="1" as="geometry" />
        </mxCell>
        <mxCell id="uDVpMdKTiAAkaG3sgZy--68" style="edgeStyle=orthogonalEdgeStyle;rounded=0;orthogonalLoop=1;jettySize=auto;html=1;exitX=0.995;exitY=0.63;exitDx=0;exitDy=0;exitPerimeter=0;entryX=1.006;entryY=0.85;entryDx=0;entryDy=0;entryPerimeter=0;" parent="1" source="uDVpMdKTiAAkaG3sgZy--34" target="uDVpMdKTiAAkaG3sgZy--59" edge="1">
          <mxGeometry relative="1" as="geometry" />
        </mxCell>
        <mxCell id="uDVpMdKTiAAkaG3sgZy--71" style="edgeStyle=orthogonalEdgeStyle;rounded=0;orthogonalLoop=1;jettySize=auto;html=1;exitX=0.995;exitY=0.63;exitDx=0;exitDy=0;exitPerimeter=0;entryX=0.983;entryY=0.975;entryDx=0;entryDy=0;entryPerimeter=0;" parent="1" source="uDVpMdKTiAAkaG3sgZy--33" target="uDVpMdKTiAAkaG3sgZy--59" edge="1">
          <mxGeometry relative="1" as="geometry" />
        </mxCell>
      </root>
    </mxGraphModel>
  </diagram>
  <diagram id="Ht1M8jgEwFfnCIfOTk4-" name="Arq. Basica">
    <mxGraphModel dx="1290" dy="621" grid="1" gridSize="10" guides="1" tooltips="1" connect="1" arrows="1" fold="1" page="1" pageScale="1" pageWidth="1169" pageHeight="827" math="0" shadow="0">
      <root>
        <mxCell id="0" />
        <mxCell id="1" parent="0" />
        <mxCell id="UnbXS70_k2kXj1R6KaeA-20" style="edgeStyle=orthogonalEdgeStyle;rounded=0;orthogonalLoop=1;jettySize=auto;html=1;exitX=0.897;exitY=0.062;exitDx=0;exitDy=0;exitPerimeter=0;strokeWidth=2;fontSize=18;" parent="1" source="UnbXS70_k2kXj1R6KaeA-18" target="UnbXS70_k2kXj1R6KaeA-2" edge="1">
          <mxGeometry relative="1" as="geometry" />
        </mxCell>
        <mxCell id="UnbXS70_k2kXj1R6KaeA-23" style="edgeStyle=orthogonalEdgeStyle;rounded=0;orthogonalLoop=1;jettySize=auto;html=1;exitX=0.906;exitY=1.037;exitDx=0;exitDy=0;exitPerimeter=0;fillColor=#fff2cc;strokeColor=#d6b656;strokeWidth=3;fontSize=18;" parent="1" source="UnbXS70_k2kXj1R6KaeA-18" target="UnbXS70_k2kXj1R6KaeA-8" edge="1">
          <mxGeometry relative="1" as="geometry" />
        </mxCell>
        <mxCell id="UnbXS70_k2kXj1R6KaeA-18" value="" style="rounded=1;whiteSpace=wrap;html=1;fontSize=18;" parent="1" vertex="1">
          <mxGeometry x="230" y="363" width="680" height="146" as="geometry" />
        </mxCell>
        <mxCell id="UnbXS70_k2kXj1R6KaeA-13" value="" style="rounded=1;whiteSpace=wrap;html=1;fontSize=18;" parent="1" vertex="1">
          <mxGeometry x="430.71" y="49" width="290" height="120" as="geometry" />
        </mxCell>
        <mxCell id="UnbXS70_k2kXj1R6KaeA-16" style="edgeStyle=orthogonalEdgeStyle;rounded=0;orthogonalLoop=1;jettySize=auto;html=1;entryX=0.5;entryY=1;entryDx=0;entryDy=0;startArrow=classic;startFill=1;strokeWidth=2;fontSize=18;" parent="1" source="UnbXS70_k2kXj1R6KaeA-1" target="UnbXS70_k2kXj1R6KaeA-13" edge="1">
          <mxGeometry relative="1" as="geometry" />
        </mxCell>
        <mxCell id="UnbXS70_k2kXj1R6KaeA-17" style="edgeStyle=orthogonalEdgeStyle;rounded=0;orthogonalLoop=1;jettySize=auto;html=1;startArrow=classic;startFill=1;strokeWidth=2;fontSize=18;" parent="1" source="UnbXS70_k2kXj1R6KaeA-1" target="UnbXS70_k2kXj1R6KaeA-2" edge="1">
          <mxGeometry relative="1" as="geometry" />
        </mxCell>
        <mxCell id="UnbXS70_k2kXj1R6KaeA-1" value="Gateway" style="outlineConnect=0;dashed=0;verticalLabelPosition=bottom;verticalAlign=top;align=center;html=1;shape=mxgraph.aws3.internet_gateway;fillColor=#F58534;gradientColor=none;fontSize=18;" parent="1" vertex="1">
          <mxGeometry x="541.21" y="239" width="69" height="72" as="geometry" />
        </mxCell>
        <mxCell id="UnbXS70_k2kXj1R6KaeA-2" value="Service Discovery" style="sketch=0;outlineConnect=0;fontColor=#232F3E;gradientColor=none;fillColor=#01A88D;strokeColor=none;dashed=0;verticalLabelPosition=bottom;verticalAlign=top;align=center;html=1;fontSize=18;fontStyle=0;aspect=fixed;shape=mxgraph.aws4.application_discovery_service_aws_discovery_agent;" parent="1" vertex="1">
          <mxGeometry x="801.71" y="243" width="78" height="63" as="geometry" />
        </mxCell>
        <mxCell id="UnbXS70_k2kXj1R6KaeA-3" value="Cuentas" style="aspect=fixed;sketch=0;html=1;dashed=0;whitespace=wrap;verticalLabelPosition=bottom;verticalAlign=top;fillColor=#2875E2;strokeColor=#ffffff;points=[[0.005,0.63,0],[0.1,0.2,0],[0.9,0.2,0],[0.5,0,0],[0.995,0.63,0],[0.72,0.99,0],[0.5,1,0],[0.28,0.99,0]];shape=mxgraph.kubernetes.icon2;prIcon=api;fontSize=18;" parent="1" vertex="1">
          <mxGeometry x="527.21" y="379" width="90" height="86.4" as="geometry" />
        </mxCell>
        <mxCell id="UnbXS70_k2kXj1R6KaeA-4" value="Alpi" style="aspect=fixed;sketch=0;html=1;dashed=0;whitespace=wrap;verticalLabelPosition=bottom;verticalAlign=top;fillColor=#CCCCCC;strokeColor=#ffffff;points=[[0.005,0.63,0],[0.1,0.2,0],[0.9,0.2,0],[0.5,0,0],[0.995,0.63,0],[0.72,0.99,0],[0.5,1,0],[0.28,0.99,0]];shape=mxgraph.kubernetes.icon2;prIcon=api;fontSize=18;" parent="1" vertex="1">
          <mxGeometry x="466.46000000000004" y="54.000000000000014" width="90" height="86.4" as="geometry" />
        </mxCell>
        <mxCell id="UnbXS70_k2kXj1R6KaeA-5" value="Cards" style="aspect=fixed;sketch=0;html=1;dashed=0;whitespace=wrap;verticalLabelPosition=bottom;verticalAlign=top;fillColor=#2875E2;strokeColor=#ffffff;points=[[0.005,0.63,0],[0.1,0.2,0],[0.9,0.2,0],[0.5,0,0],[0.995,0.63,0],[0.72,0.99,0],[0.5,1,0],[0.28,0.99,0]];shape=mxgraph.kubernetes.icon2;prIcon=api;fontSize=18;" parent="1" vertex="1">
          <mxGeometry x="801.71" y="379" width="90" height="86.4" as="geometry" />
        </mxCell>
        <mxCell id="UnbXS70_k2kXj1R6KaeA-6" value="Event Broker" style="sketch=0;points=[[0,0,0],[0.25,0,0],[0.5,0,0],[0.75,0,0],[1,0,0],[0,1,0],[0.25,1,0],[0.5,1,0],[0.75,1,0],[1,1,0],[0,0.25,0],[0,0.5,0],[0,0.75,0],[1,0.25,0],[1,0.5,0],[1,0.75,0]];outlineConnect=0;fontColor=#232F3E;fillColor=#8C4FFF;strokeColor=#ffffff;dashed=0;verticalLabelPosition=bottom;verticalAlign=top;align=center;html=1;fontSize=18;fontStyle=0;aspect=fixed;shape=mxgraph.aws4.resourceIcon;resIcon=mxgraph.aws4.managed_streaming_for_kafka;" parent="1" vertex="1">
          <mxGeometry x="533.21" y="559" width="78" height="78" as="geometry" />
        </mxCell>
        <mxCell id="UnbXS70_k2kXj1R6KaeA-24" style="edgeStyle=orthogonalEdgeStyle;rounded=0;orthogonalLoop=1;jettySize=auto;html=1;fillColor=#fff2cc;strokeColor=#d6b656;strokeWidth=3;fontSize=18;" parent="1" source="UnbXS70_k2kXj1R6KaeA-7" target="UnbXS70_k2kXj1R6KaeA-8" edge="1">
          <mxGeometry relative="1" as="geometry" />
        </mxCell>
        <mxCell id="UnbXS70_k2kXj1R6KaeA-7" value="Message" style="aspect=fixed;sketch=0;html=1;dashed=0;whitespace=wrap;verticalLabelPosition=bottom;verticalAlign=top;fillColor=#2875E2;strokeColor=#ffffff;points=[[0.005,0.63,0],[0.1,0.2,0],[0.9,0.2,0],[0.5,0,0],[0.995,0.63,0],[0.72,0.99,0],[0.5,1,0],[0.28,0.99,0]];shape=mxgraph.kubernetes.icon2;prIcon=api;fontSize=18;" parent="1" vertex="1">
          <mxGeometry x="527.71" y="699" width="90" height="86.4" as="geometry" />
        </mxCell>
        <mxCell id="UnbXS70_k2kXj1R6KaeA-8" value="Grafana/Prometheus" style="sketch=0;outlineConnect=0;fontColor=#232F3E;gradientColor=none;fillColor=#8C4FFF;strokeColor=none;dashed=0;verticalLabelPosition=bottom;verticalAlign=top;align=center;html=1;fontSize=18;fontStyle=0;aspect=fixed;pointerEvents=1;shape=mxgraph.aws4.opensearch_observability;" parent="1" vertex="1">
          <mxGeometry x="807.71" y="703" width="78" height="78" as="geometry" />
        </mxCell>
        <mxCell id="UnbXS70_k2kXj1R6KaeA-11" value="Security" style="image;aspect=fixed;perimeter=ellipsePerimeter;html=1;align=center;shadow=0;dashed=0;spacingTop=3;image=img/lib/active_directory/security.svg;fontSize=18;" parent="1" vertex="1">
          <mxGeometry x="489.71" y="199" width="31.5" height="50" as="geometry" />
        </mxCell>
        <mxCell id="UnbXS70_k2kXj1R6KaeA-14" value="Loans" style="aspect=fixed;sketch=0;html=1;dashed=0;whitespace=wrap;verticalLabelPosition=bottom;verticalAlign=top;fillColor=#2875E2;strokeColor=#ffffff;points=[[0.005,0.63,0],[0.1,0.2,0],[0.9,0.2,0],[0.5,0,0],[0.995,0.63,0],[0.72,0.99,0],[0.5,1,0],[0.28,0.99,0]];shape=mxgraph.kubernetes.icon2;prIcon=api;fontSize=18;" parent="1" vertex="1">
          <mxGeometry x="260" y="379" width="90" height="86.4" as="geometry" />
        </mxCell>
        <mxCell id="UnbXS70_k2kXj1R6KaeA-21" style="edgeStyle=orthogonalEdgeStyle;rounded=0;orthogonalLoop=1;jettySize=auto;html=1;entryX=0.5;entryY=0;entryDx=0;entryDy=0;entryPerimeter=0;startArrow=classic;startFill=1;dashed=1;strokeWidth=2;fontSize=18;" parent="1" source="UnbXS70_k2kXj1R6KaeA-3" target="UnbXS70_k2kXj1R6KaeA-6" edge="1">
          <mxGeometry relative="1" as="geometry" />
        </mxCell>
        <mxCell id="UnbXS70_k2kXj1R6KaeA-22" style="edgeStyle=orthogonalEdgeStyle;rounded=0;orthogonalLoop=1;jettySize=auto;html=1;entryX=0.5;entryY=0;entryDx=0;entryDy=0;entryPerimeter=0;startArrow=classic;startFill=1;dashed=1;strokeWidth=2;fontSize=18;" parent="1" source="UnbXS70_k2kXj1R6KaeA-6" target="UnbXS70_k2kXj1R6KaeA-7" edge="1">
          <mxGeometry relative="1" as="geometry" />
        </mxCell>
        <mxCell id="UnbXS70_k2kXj1R6KaeA-25" style="edgeStyle=orthogonalEdgeStyle;rounded=0;orthogonalLoop=1;jettySize=auto;html=1;entryX=0.508;entryY=0.007;entryDx=0;entryDy=0;entryPerimeter=0;startArrow=classic;startFill=1;strokeWidth=2;fontSize=18;" parent="1" source="UnbXS70_k2kXj1R6KaeA-1" target="UnbXS70_k2kXj1R6KaeA-18" edge="1">
          <mxGeometry relative="1" as="geometry" />
        </mxCell>
        <mxCell id="Zo4lbG6RaiwPHi_krfJ1-2" value="App Web" style="sketch=0;outlineConnect=0;fontColor=#232F3E;gradientColor=none;fillColor=#CCCCCC;strokeColor=none;dashed=0;verticalLabelPosition=bottom;verticalAlign=top;align=center;html=1;fontSize=18;fontStyle=0;aspect=fixed;pointerEvents=1;shape=mxgraph.aws4.state_manager;" parent="1" vertex="1">
          <mxGeometry x="610.21" y="61" width="78" height="78" as="geometry" />
        </mxCell>
      </root>
    </mxGraphModel>
  </diagram>
</mxfile>
